<svg xmlns="http://www.w3.org/2000/svg" viewBox="0 0 96 96" role="img" aria-label="iOS">
  <defs>
    <linearGradient id="g" x1="16" y1="8" x2="80" y2="88" gradientUnits="userSpaceOnUse">
      <stop stop-color="#F7FAFC"/>
      <stop offset="1" stop-color="#C9D6E4"/>
    </linearGradient>
    <filter id="s" x="-20%" y="-20%" width="140%" height="140%">
      <feDropShadow dx="0" dy="7" stdDeviation="5" flood-color="#000" flood-opacity=".28"/>
    </filter>
  </defs>
  <rect x="12" y="10" width="72" height="76" rx="20" fill="url(#g)" filter="url(#s)"/>
  <rect x="29" y="18" width="38" height="60" rx="10" fill="#111827"/>
  <rect x="32" y="23" width="32" height="48" rx="5" fill="#F8FAFC"/>
  <circle cx="48" cy="74" r="2.2" fill="#E5E7EB"/>
  <path d="M38 45c0-5.3 4-9 9.2-9 2.1 0 3.8.6 5.2 1.7l-2.1 3.2c-.8-.7-1.8-1-3-1-2.9 0-4.7 2-4.7 5.1s1.8 5.1 4.8 5.1c1.4 0 2.6-.4 3.6-1.2l1.8 3.3c-1.6 1.2-3.5 1.8-5.8 1.8-5.2 0-9-3.4-9-9z" fill="#111827"/>
  <text x="48" y="62" text-anchor="middle" font-family="Arial, Helvetica, sans-serif" font-size="12" font-weight="800" fill="#111827">iOS</text>
</svg>
